<?xml version="1.0" encoding="utf-8"?>
<!-- Generator: Adobe Illustrator 16.0.0, SVG Export Plug-In . SVG Version: 6.00 Build 0)  -->
<!DOCTYPE svg PUBLIC "-//W3C//DTD SVG 1.1//EN" "http://www.w3.org/Graphics/SVG/1.1/DTD/svg11.dtd">
<svg version="1.1" id="Layer_1" xmlns="http://www.w3.org/2000/svg" xmlns:xlink="http://www.w3.org/1999/xlink" x="0px" y="0px"
	 width="792px" height="250px" viewBox="0 0 792 250" enable-background="new 0 0 792 250" xml:space="preserve">
<g>
	<path fill="none" d="M550.804,126.539c-1.191-0.761-2.562-1.293-4.107-1.599c-1.55-0.304-3.133-0.457-4.757-0.457h-10.954v19.177
		h10.801c1.571,0,3.132-0.164,4.682-0.496c1.543-0.329,2.941-0.86,4.185-1.597c1.242-0.735,2.242-1.699,3.005-2.892
		c0.761-1.191,1.143-2.65,1.143-4.376c0-1.877-0.371-3.448-1.105-4.719C552.959,128.315,551.995,127.299,550.804,126.539z"/>
	<path fill="none" d="M597.495,120.644c1.592-0.223,3.027-0.683,4.312-1.38c1.282-0.699,2.316-1.675,3.099-2.931
		s1.171-2.917,1.171-4.982c0-1.843-0.36-3.335-1.089-4.481c-0.726-1.143-1.686-2.052-2.89-2.721
		c-1.198-0.669-2.565-1.13-4.102-1.381c-1.537-0.251-3.085-0.377-4.645-0.377h-10.469v18.589h9.714
		C594.272,120.978,595.906,120.868,597.495,120.644z"/>
	<polygon fill="none" points="539.174,104.901 526.866,134.041 551.064,134.041 539.344,104.901 	"/>
	<polygon fill="none" points="36.348,111.567 38.494,116.914 36.312,111.396 29.768,128.138 39.257,128.138 39.256,128.136 	"/>
	<polygon fill="#3758A7" points="34.085,95.859 8.462,155.142 22.865,155.142 27.804,142.582 46.789,142.582 46.786,142.577 
		42.35,131.53 31.908,131.53 39.109,113.109 41.511,119.178 55.946,155.142 70.676,155.142 44.885,95.859 	"/>
	<polygon fill="#3758A7" points="51.607,149.596 51.613,149.596 51.599,149.574 	"/>
	<path fill="#3758A7" d="M107.894,123.91c-2.039-1.229-4.229-2.178-6.573-2.847c-2.344-0.67-4.535-1.341-6.571-2.01
		c-2.039-0.67-3.726-1.478-5.066-2.428c-1.341-0.948-2.011-2.316-2.011-4.103c0-1.116,0.279-2.065,0.837-2.848
		c0.558-0.78,1.285-1.408,2.178-1.884c0.892-0.473,1.841-0.822,2.846-1.046c1.005-0.221,1.981-0.335,2.929-0.335
		c1.62,0,3.336,0.321,5.151,0.962c1.814,0.643,3.25,1.633,4.312,2.973l8.958-9.797c-2.509-2.231-5.331-3.822-8.456-4.772
		c-3.128-0.949-6.364-1.423-9.713-1.423c-2.903,0-5.722,0.404-8.456,1.213c-2.737,0.81-5.15,2.024-7.243,3.643
		c-2.094,1.62-3.768,3.629-5.024,6.029c-1.256,2.4-1.884,5.19-1.884,8.374c0,3.292,0.683,5.944,2.052,7.955
		c1.366,2.009,3.083,3.629,5.15,4.855c2.063,1.229,4.297,2.206,6.698,2.931c2.4,0.727,4.634,1.453,6.699,2.179
		c2.064,0.726,3.779,1.605,5.149,2.636c1.366,1.035,2.052,2.443,2.052,4.229c0,1.062-0.268,1.983-0.796,2.764
		c-0.53,0.782-1.229,1.424-2.092,1.925c-0.867,0.504-1.843,0.882-2.931,1.132c-1.09,0.252-2.165,0.377-3.224,0.377
		c-2.176,0-4.285-0.487-6.322-1.466c-2.038-0.976-3.726-2.356-5.065-4.146l-9.295,10.215c2.847,2.626,5.917,4.523,9.211,5.695
		c3.292,1.172,6.867,1.758,10.717,1.758c3.068,0,5.987-0.393,8.75-1.172c2.763-0.781,5.192-1.979,7.285-3.6
		c2.093-1.619,3.752-3.656,4.982-6.113c1.228-2.457,1.843-5.33,1.843-8.624c0-3.462-0.671-6.223-2.01-8.29
		C111.62,126.784,109.931,125.138,107.894,123.91z"/>
	<polygon fill="#3758A7" points="163.116,117.965 137.744,117.965 137.744,95.859 124.683,95.859 124.683,155.142 137.744,155.142 
		137.744,129.519 163.116,129.519 163.116,155.142 176.178,155.142 176.178,95.859 163.116,95.859 	"/>
	<polygon fill="#3758A7" points="201.798,95.859 188.735,95.859 188.735,155.142 225.997,155.142 225.997,143.083 201.798,143.083 	
		"/>
	<polygon fill="#3758A7" points="246.76,131.027 272.466,131.027 272.466,118.968 246.76,118.968 246.76,107.917 273.973,107.917 
		273.973,95.859 233.698,95.859 233.698,155.142 275.48,155.142 275.48,143.083 246.76,143.083 	"/>
	<polygon fill="#3758A7" points="307.047,118.048 294.488,95.859 278.243,95.859 300.515,129.854 300.515,155.142 313.577,155.142 
		313.577,129.854 335.851,95.859 320.36,95.859 	"/>
	<polygon fill="#3758A7" points="362.588,127.51 390.806,127.51 390.806,120.978 362.588,120.978 362.588,102.389 392.816,102.389 
		392.816,95.859 355.555,95.859 355.555,155.142 394.323,155.142 394.323,148.61 362.588,148.61 	"/>
	<polygon fill="#3758A7" points="412.24,95.859 405.206,95.859 405.206,155.142 439.371,155.142 439.371,148.61 412.24,148.61 	"/>
	<rect x="447.074" y="95.859" fill="#3758A7" width="7.033" height="59.283"/>
	<polygon fill="#3758A7" points="506.692,101.887 506.692,95.859 464.405,95.859 464.405,102.389 498.149,102.389 463.903,148.862 
		463.903,155.142 507.109,155.142 507.109,148.61 472.444,148.61 	"/>
	<path fill="#3758A7" d="M536.161,95.859l-26.123,59.283h7.953l6.116-14.569h29.637l6.028,14.569h8.205l-25.202-59.283H536.161z
		 M526.866,134.041l12.308-29.14h0.17l11.721,29.14H526.866z"/>
	<path fill="#3758A7" d="M612.819,128.598c-1.203-1.282-2.626-2.328-4.269-3.139c-1.648-0.81-3.42-1.297-5.319-1.465v-0.167
		c3.18-0.949,5.708-2.554,7.578-4.815c1.869-2.26,2.805-5.121,2.805-8.583c0-2.733-0.575-5.023-1.716-6.866
		c-1.146-1.842-2.638-3.334-4.479-4.48c-1.847-1.143-3.936-1.967-6.28-2.469c-2.35-0.503-4.746-0.754-7.201-0.754h-18.088v59.283
		h17.669c2.733,0,5.483-0.251,8.245-0.755c2.767-0.502,5.248-1.38,7.452-2.635c2.205-1.258,3.992-2.945,5.36-5.068
		c1.365-2.12,2.052-4.826,2.052-8.121c0-1.953-0.333-3.781-1.004-5.484C614.952,131.377,614.02,129.884,612.819,128.598z
		 M582.884,102.389h10.469c1.56,0,3.107,0.126,4.645,0.377c1.536,0.251,2.903,0.712,4.102,1.381c1.204,0.669,2.164,1.579,2.89,2.721
		c0.729,1.146,1.089,2.638,1.089,4.481c0,2.065-0.389,3.726-1.171,4.982s-1.816,2.232-3.099,2.931
		c-1.285,0.697-2.721,1.158-4.312,1.38c-1.589,0.224-3.223,0.334-4.897,0.334h-9.714V102.389z M607.838,143.126
		c-0.838,1.312-1.941,2.373-3.307,3.181c-1.37,0.811-2.903,1.396-4.605,1.76c-1.703,0.363-3.423,0.544-5.149,0.544h-11.893V127.51
		h12.061c1.783,0,3.528,0.168,5.231,0.503s3.209,0.921,4.521,1.758c1.311,0.837,2.369,1.954,3.18,3.351
		c0.808,1.395,1.215,3.126,1.215,5.189C609.092,140.209,608.676,141.815,607.838,143.126z"/>
	<polygon fill="#3758A7" points="635.635,127.51 663.854,127.51 663.854,120.978 635.635,120.978 635.635,102.389 665.863,102.389 
		665.863,95.859 628.6,95.859 628.6,155.142 667.368,155.142 667.368,148.61 635.635,148.61 	"/>
	<polygon fill="#3758A7" points="671.806,102.389 691.397,102.389 691.397,155.142 698.433,155.142 698.433,102.389 
		718.028,102.389 718.028,95.859 671.806,95.859 	"/>
	<polygon fill="#3758A7" points="765,95.859 765,120.978 733.351,120.978 733.351,95.859 726.315,95.859 726.315,155.142 
		733.351,155.142 733.351,127.51 765,127.51 765,155.142 772.03,155.142 772.03,95.859 	"/>
</g>
</svg>
